{"asset":{"version":"2.0","generator":"VECTARY"},"nodes":[{"translation":[0.1328709636245203,-2.842170943040401e-17,0.17281887253398248],"scale":[0.001,0.001,0.001],"rotation":[-0.7071067811865475,0,0,0.7071067811865476],"name":"Point Light","extensions":{"KHR_lights_punctual":{"light":0}}},{"translation":[-0.00014436222462329074,6.661338147750939e-19,-0.0030318159173467196],"scale":[0.00039123047402536584,0.00039123047402536584,0.00039123047402536584],"rotation":[-0.7071067811865475,0,0,0.7071067811865476],"name":"3D Text - baked","children":[2,3,4,5,6]},{"translation":[-60.350299854278575,0,0],"scale":[1,1,1],"rotation":[0,0,0,1],"name":"3D Text - A","mesh":0},{"translation":[-15.845299854278572,0,0],"scale":[1,1,1],"rotation":[0,0,0,1],"name":"3D Text - m","mesh":1},{"translation":[13.674700145721431,0,0],"scale":[1,1,1],"rotation":[0,0,0,1],"name":"3D Text - i","mesh":2},{"translation":[23.79970014572143,0,0],"scale":[1,1,1],"rotation":[0,0,0,1],"name":"3D Text - n","mesh":3},{"translation":[44.81470014572143,0,0],"scale":[1,1,1],"rotation":[0,0,0,1],"name":"3D Text - e","mesh":4}],"extensions":{"KHR_lights_punctual":{"lights":[{"name":"Point Light","type":"point","intensity":0.4,"range":10000,"color":[1,1,1]}]}},"materials":[{"pbrMetallicRoughness":{"baseColorFactor":[0.9743002023888613,0.5295232224172772,0.0036972395789001307,1],"metallicFactor":0.8,"roughnessFactor":0},"name":"Zambia","emissiveFactor":[0,0,0],"extensions":{},"alphaMode":"OPAQUE","doubleSided":false},{"pbrMetallicRoughness":{"baseColorFactor":[0.9743002023888613,0.5295232224172772,0.0036972395789001307,1],"metallicFactor":0.8,"roughnessFactor":0},"name":"Zambia","emissiveFactor":[0,0,0],"extensions":{},"alphaMode":"OPAQUE","doubleSided":false},{"pbrMetallicRoughness":{"baseColorFactor":[0.9743002023888613,0.5295232224172772,0.0036972395789001307,1],"metallicFactor":0.8,"roughnessFactor":0},"name":"Zambia","emissiveFactor":[0,0,0],"extensions":{},"alphaMode":"OPAQUE","doubleSided":false},{"pbrMetallicRoughness":{"baseColorFactor":[0.9743002023888613,0.5295232224172772,0.0036972395789001307,1],"metallicFactor":0.8,"roughnessFactor":0},"name":"Zambia","emissiveFactor":[0,0,0],"extensions":{},"alphaMode":"OPAQUE","doubleSided":false},{"pbrMetallicRoughness":{"baseColorFactor":[0.9743002023888613,0.5295232224172772,0.0036972395789001307,1],"metallicFactor":0.8,"roughnessFactor":0},"name":"Zambia","emissiveFactor":[0,0,0],"extensions":{},"alphaMode":"OPAQUE","doubleSided":false}],"meshes":[{"primitives":[{"mode":4,"attributes":{"POSITION":1,"NORMAL":2,"TEXCOORD_0":3},"material":0,"indices":0}]},{"primitives":[{"mode":4,"attributes":{"POSITION":5,"NORMAL":6,"TEXCOORD_0":7},"material":1,"indices":4}]},{"primitives":[{"mode":4,"attributes":{"POSITION":9,"NORMAL":10,"TEXCOORD_0":11},"material":2,"indices":8}]},{"primitives":[{"mode":4,"attributes":{"POSITION":13,"NORMAL":14,"TEXCOORD_0":15},"material":3,"indices":12}]},{"primitives":[{"mode":4,"attributes":{"POSITION":17,"NORMAL":18,"TEXCOORD_0":19},"material":4,"indices":16}]}],"accessors":[{"bufferView":0,"byteOffset":0,"componentType":5125,"count":1641,"type":"SCALAR"},{"bufferView":1,"byteOffset":0,"componentType":5126,"count":1083,"max":[62.79999923706055,2.5717582580799545e-15,42],"min":[-7.300000190734863,-15,-11.649999618530273],"type":"VEC3"},{"bufferView":2,"byteOffset":0,"componentType":5126,"count":1083,"type":"VEC3"},{"bufferView":3,"byteOffset":0,"componentType":5126,"count":1083,"type":"VEC2"},{"bufferView":4,"byteOffset":0,"componentType":5125,"count":1608,"type":"SCALAR"},{"bufferView":5,"byteOffset":0,"componentType":5126,"count":1074,"max":[39.094398498535156,1.2093386908272369e-15,19.75],"min":[-1.0676000118255615,-15,-1],"type":"VEC3"},{"bufferView":6,"byteOffset":0,"componentType":5126,"count":1074,"type":"VEC3"},{"bufferView":7,"byteOffset":0,"componentType":5126,"count":1074,"type":"VEC2"},{"bufferView":8,"byteOffset":0,"componentType":5125,"count":936,"type":"SCALAR"},{"bufferView":9,"byteOffset":0,"componentType":5126,"count":628,"max":[18.012800216674805,1.6165337924728624e-15,26.399999618530273],"min":[-1.350000023841858,-15,-0.3499999940395355],"type":"VEC3"},{"bufferView":10,"byteOffset":0,"componentType":5126,"count":628,"type":"VEC3"},{"bufferView":11,"byteOffset":0,"componentType":5126,"count":628,"type":"VEC2"},{"bufferView":12,"byteOffset":0,"componentType":5125,"count":1308,"type":"SCALAR"},{"bufferView":13,"byteOffset":0,"componentType":5126,"count":874,"max":[29.5447998046875,1.2093386908272369e-15,19.75],"min":[-1.0628000497817993,-15,-1],"type":"VEC3"},{"bufferView":14,"byteOffset":0,"componentType":5126,"count":874,"type":"VEC3"},{"bufferView":15,"byteOffset":0,"componentType":5126,"count":874,"type":"VEC2"},{"bufferView":16,"byteOffset":0,"componentType":5125,"count":780,"type":"SCALAR"},{"bufferView":17,"byteOffset":0,"componentType":5126,"count":520,"max":[22.835599899291992,1.2093386908272369e-15,19.75],"min":[-1.100000023841858,-15,-0.3499999940395355],"type":"VEC3"},{"bufferView":18,"byteOffset":0,"componentType":5126,"count":520,"type":"VEC3"},{"bufferView":19,"byteOffset":0,"componentType":5126,"count":520,"type":"VEC2"}],"bufferViews":[{"buffer":0,"byteOffset":0,"byteLength":6564,"target":34963},{"buffer":0,"byteOffset":6564,"byteLength":12996,"target":34962},{"buffer":0,"byteOffset":19560,"byteLength":12996,"target":34962},{"buffer":0,"byteOffset":32556,"byteLength":8664,"target":34962},{"buffer":0,"byteOffset":41220,"byteLength":6432,"target":34963},{"buffer":0,"byteOffset":47652,"byteLength":12888,"target":34962},{"buffer":0,"byteOffset":60540,"byteLength":12888,"target":34962},{"buffer":0,"byteOffset":73428,"byteLength":8592,"target":34962},{"buffer":0,"byteOffset":82020,"byteLength":3744,"target":34963},{"buffer":0,"byteOffset":85764,"byteLength":7536,"target":34962},{"buffer":0,"byteOffset":93300,"byteLength":7536,"target":34962},{"buffer":0,"byteOffset":100836,"byteLength":5024,"target":34962},{"buffer":0,"byteOffset":105860,"byteLength":5232,"target":34963},{"buffer":0,"byteOffset":111092,"byteLength":10488,"target":34962},{"buffer":0,"byteOffset":121580,"byteLength":10488,"target":34962},{"buffer":0,"byteOffset":132068,"byteLength":6992,"target":34962},{"buffer":0,"byteOffset":139060,"byteLength":3120,"target":34963},{"buffer":0,"byteOffset":142180,"byteLength":6240,"target":34962},{"buffer":0,"byteOffset":148420,"byteLength":6240,"target":34962},{"buffer":0,"byteOffset":154660,"byteLength":4160,"target":34962}],"scene":0,"scenes":[{"nodes":[0,1],"name":"AmineLogo"}],"extensionsUsed":["KHR_texture_transform","KHR_lights_punctual"],"extensionsRequired":["KHR_lights_punctual"],"buffers":[{"byteLength":158820,"uri":"AmineLogo.bin"}]}